<svg xmlns="http://www.w3.org/2000/svg" width="100" height="100" viewBox="0 0 100 100" fill="none">
  <rect width="100" height="100" rx="22" fill="#1A1714"/>
  <g transform="translate(-2 9)">
    <path d="M 50 40 C 50 36, 49 30, 50 26 C 51 22, 53 20, 50 18 C 47 20, 47 26, 48 31 C 46 27, 43 22, 40 21 C 36 20, 34 24, 35 28 C 36 32, 40 34, 44 33 C 40 35, 35 37, 34 41 C 33 45, 35 49, 38 50 C 41 51, 45 49, 46 46 C 44 50, 43 56, 45 60 C 47 64, 51 65, 54 63 C 57 61, 57 57, 55 53 C 58 57, 62 60, 66 59 C 70 58, 71 54, 69 50 C 67 46, 63 44, 59 45 C 63 43, 67 39, 66 35 C 65 31, 61 29, 57 31 C 54 33, 53 37, 54 40" stroke="#FAFAF8" stroke-width="2.6" stroke-linecap="round" stroke-linejoin="round" fill="none"/>
    <circle cx="50" cy="40" r="11" fill="#E8C000"/>
  </g>
</svg>
