<svg width="512" height="512" viewBox="0 0 194 194" fill="none" xmlns="http://www.w3.org/2000/svg">
<rect width="194" height="194" rx="32" fill="#222222"/>
<path d="M109.769 61.782H133.121C148.325 61.782 156.137 69.342 156.137 78.162C156.137 88.326 147.989 95.298 133.037 95.298H126.737V113.526C126.737 118.482 128.669 119.154 136.985 119.826V120.75H109.769V119.826C115.817 119.238 116.825 118.566 116.825 113.946V68.586C116.825 63.966 115.817 63.294 109.769 62.706V61.782ZM126.737 63.294V93.702H131.021C141.017 93.702 145.805 87.99 145.805 78.498C145.805 69.93 140.933 63.294 131.021 63.294H126.737Z" fill="white"/>
<path d="M70.7543 52.398C90.6263 52.398 101.954 68.046 101.954 85.71C101.954 106.734 87.5543 121.71 69.5063 121.71C49.6343 121.71 38.4023 106.062 38.4023 88.398C38.4023 67.374 52.7063 52.398 70.7543 52.398ZM69.6983 53.742C58.4663 53.742 53.3783 69.486 53.3783 86.478C53.3783 103.854 58.5623 120.366 70.5623 120.366C81.8903 120.366 86.8823 104.622 86.8823 87.63C86.8823 70.254 81.7943 53.742 69.6983 53.742Z" fill="white"/>
</svg>
