<svg xmlns="http://www.w3.org/2000/svg" width="32" height="32" viewBox="0 0 32 32" fill="none">
  <rect width="32" height="32" rx="7" fill="#1A1714"/>
  <!-- Simplified mark for tiny sizes: bold filled petals + gold disc -->
  <g fill="#FAFAF8">
    <g transform="rotate(0 16 16)"><ellipse cx="16" cy="7.2" rx="2.3" ry="4.3"/></g>
    <g transform="rotate(45 16 16)"><ellipse cx="16" cy="7.2" rx="2.3" ry="4.3"/></g>
    <g transform="rotate(90 16 16)"><ellipse cx="16" cy="7.2" rx="2.3" ry="4.3"/></g>
    <g transform="rotate(135 16 16)"><ellipse cx="16" cy="7.2" rx="2.3" ry="4.3"/></g>
    <g transform="rotate(180 16 16)"><ellipse cx="16" cy="7.2" rx="2.3" ry="4.3"/></g>
    <g transform="rotate(225 16 16)"><ellipse cx="16" cy="7.2" rx="2.3" ry="4.3"/></g>
    <g transform="rotate(270 16 16)"><ellipse cx="16" cy="7.2" rx="2.3" ry="4.3"/></g>
    <g transform="rotate(315 16 16)"><ellipse cx="16" cy="7.2" rx="2.3" ry="4.3"/></g>
  </g>
  <circle cx="16" cy="16" r="5" fill="#E8C000"/>
</svg>
