<svg xmlns="http://www.w3.org/2000/svg" width="1200" height="630" viewBox="0 0 1200 630" fill="none">
  <rect width="1200" height="630" fill="#FAFAF8"/>
  <svg x="490" y="96" width="220" height="220" viewBox="0 0 100 100">
    <line x1="50" y1="88" x2="50" y2="40" stroke="#1A1714" stroke-width="1.6" stroke-linecap="round"/>
    <path d="M 50 40 C 50 36, 49 30, 50 26 C 51 22, 53 20, 50 18 C 47 20, 47 26, 48 31 C 46 27, 43 22, 40 21 C 36 20, 34 24, 35 28 C 36 32, 40 34, 44 33 C 40 35, 35 37, 34 41 C 33 45, 35 49, 38 50 C 41 51, 45 49, 46 46 C 44 50, 43 56, 45 60 C 47 64, 51 65, 54 63 C 57 61, 57 57, 55 53 C 58 57, 62 60, 66 59 C 70 58, 71 54, 69 50 C 67 46, 63 44, 59 45 C 63 43, 67 39, 66 35 C 65 31, 61 29, 57 31 C 54 33, 53 37, 54 40" stroke="#1A1714" stroke-width="1.6" stroke-linecap="round" stroke-linejoin="round" fill="none"/>
    <circle cx="50" cy="40" r="10" fill="#E8C000"/>
  </svg>
  <text x="600" y="420" text-anchor="middle" font-family="Helvetica, Arial, sans-serif" font-size="72" font-weight="700" letter-spacing="14" fill="#1A1714">OPUS POPULI</text>
  <rect x="560" y="452" width="80" height="3" fill="#E8C000"/>
  <text x="600" y="510" text-anchor="middle" font-family="Georgia, 'Times New Roman', serif" font-style="italic" font-size="30" fill="#8A8880">The Work of the People</text>
</svg>
