<svg width="1500" height="500" viewBox="0 0 1500 500" fill="none" xmlns="http://www.w3.org/2000/svg">
  <!-- Background -->
  <rect width="1500" height="500" fill="#2C3E50"/>
  <circle cx="750" cy="250" r="300" fill="rgba(127, 156, 142, 0.1)"/>

  <!-- CWLabs Logo centered and scaled -->
  <g transform="translate(333, 182.5) scale(1)">
    <path d="M770.991 70.8182V1H789.946V28.2727H815.037V1H833.991V70.8182H815.037V43.5455H789.946V70.8182H770.991Z" fill="white"/>
    <path d="M703.176 16.2727V1H763.858V16.2727H742.858V70.8182H724.176V16.2727H703.176Z" fill="white"/>
    <path d="M658.585 70.8182V1H677.54V55.5455H705.767V70.8182H658.585Z" fill="white"/>
    <path d="M600.315 70.8182H579.861L602.906 1H628.815L651.861 70.8182H631.406L616.133 20.2273H615.588L600.315 70.8182ZM596.497 43.2727H634.952V57.4546H596.497V43.2727Z" fill="white"/>
    <path d="M522.46 70.8182V1H572.778V16.2727H541.415V28.2727H570.188V43.5455H541.415V55.5455H572.642V70.8182H522.46Z" fill="white"/>
    <path d="M396.972 35.8636C396.972 43.6364 395.46 50.1932 392.438 55.5341C389.415 60.8523 385.335 64.8864 380.199 67.6364C375.062 70.3636 369.335 71.7273 363.017 71.7273C356.653 71.7273 350.903 70.3523 345.767 67.6023C340.653 64.8295 336.585 60.7841 333.562 55.4659C330.562 50.125 329.062 43.5909 329.062 35.8636C329.062 28.0909 330.562 21.5455 333.562 16.2273C336.585 10.8864 340.653 6.85227 345.767 4.125C350.903 1.375 356.653 0 363.017 0C369.335 0 375.062 1.375 380.199 4.125C385.335 6.85227 389.415 10.8864 392.438 16.2273C395.46 21.5455 396.972 28.0909 396.972 35.8636ZM377.472 35.8636C377.472 31.6818 376.915 28.1591 375.801 25.2955C374.71 22.4091 373.085 20.2273 370.926 18.75C368.79 17.25 366.153 16.5 363.017 16.5C359.881 16.5 357.233 17.25 355.074 18.75C352.937 20.2273 351.312 22.4091 350.199 25.2955C349.108 28.1591 348.562 31.6818 348.562 35.8636C348.562 40.0455 349.108 43.5795 350.199 46.4659C351.312 49.3295 352.937 51.5114 355.074 53.0114C357.233 54.4886 359.881 55.2273 363.017 55.2273C366.153 55.2273 368.79 54.4886 370.926 53.0114C373.085 51.5114 374.71 49.3295 375.801 46.4659C376.915 43.5795 377.472 40.0455 377.472 35.8636Z" fill="white"/>
    <path d="M239.898 1.18176H263.489L279.716 40.7272H280.534L296.761 1.18176H320.352V70.9999H301.807V30.6363H301.261L285.716 70.4545H274.534L258.989 30.3636H258.443V70.9999H239.898V1.18176Z" fill="white"/>
    <path d="M150.46 1.18176H174.051L190.278 40.7272H191.097L207.324 1.18176H230.915V70.9999H212.369V30.6363H211.824L196.278 70.4545H185.097L169.551 30.3636H169.006V70.9999H150.46V1.18176Z" fill="white"/>
    <path d="M141.69 36.0909C141.69 43.8637 140.179 50.4205 137.156 55.7614C134.134 61.0796 130.054 65.1137 124.918 67.8637C119.781 70.5909 114.054 71.9546 107.736 71.9546C101.372 71.9546 95.6222 70.5796 90.4858 67.8296C85.3722 65.0568 81.304 61.0114 78.2812 55.6932C75.2812 50.3523 73.7812 43.8182 73.7812 36.0909C73.7812 28.3182 75.2812 21.7727 78.2812 16.4546C81.304 11.1137 85.3722 7.07957 90.4858 4.35229C95.6222 1.60229 101.372 0.227295 107.736 0.227295C114.054 0.227295 119.781 1.60229 124.918 4.35229C130.054 7.07957 134.134 11.1137 137.156 16.4546C140.179 21.7727 141.69 28.3182 141.69 36.0909ZM122.19 36.0909C122.19 31.9091 121.634 28.3864 120.52 25.5228C119.429 22.6364 117.804 20.4546 115.645 18.9773C113.509 17.4773 110.872 16.7273 107.736 16.7273C104.599 16.7273 101.952 17.4773 99.7926 18.9773C97.6563 20.4546 96.0313 22.6364 94.9176 25.5228C93.8267 28.3864 93.2812 31.9091 93.2812 36.0909C93.2812 40.2728 93.8267 43.8068 94.9176 46.6932C96.0313 49.5568 97.6563 51.7387 99.7926 53.2387C101.952 54.7159 104.599 55.4546 107.736 55.4546C110.872 55.4546 113.509 54.7159 115.645 53.2387C117.804 51.7387 119.429 49.5568 120.52 46.6932C121.634 43.8068 122.19 40.2728 122.19 36.0909Z" fill="white"/>
    <path d="M65.4545 27.3637H46.2273C46.0909 25.7727 45.7273 24.3296 45.1364 23.0341C44.5682 21.7387 43.7727 20.625 42.75 19.6932C41.75 18.7387 40.5341 18.0114 39.1023 17.5114C37.6704 16.9887 36.0454 16.7273 34.2273 16.7273C31.0454 16.7273 28.3523 17.5 26.1477 19.0455C23.9659 20.5909 22.3068 22.8068 21.1704 25.6932C20.0568 28.5796 19.5 32.0455 19.5 36.0909C19.5 40.3637 20.0682 43.9432 21.2045 46.8296C22.3636 49.6932 24.0341 51.8523 26.2159 53.3068C28.3977 54.7387 31.0227 55.4546 34.0909 55.4546C35.8409 55.4546 37.4091 55.2387 38.7955 54.8068C40.1818 54.3523 41.3864 53.7046 42.4091 52.8637C43.4318 52.0228 44.2614 51.0114 44.8977 49.8296C45.5568 48.625 46 47.2728 46.2273 45.7728L65.4545 45.9091C65.2273 48.8637 64.3977 51.875 62.9659 54.9432C61.5341 57.9887 59.5 60.8068 56.8636 63.3977C54.25 65.9659 51.0114 68.0341 47.1477 69.6023C43.2841 71.1705 38.7954 71.9546 33.6818 71.9546C27.2727 71.9546 21.5227 70.5796 16.4318 67.8296C11.3636 65.0796 7.35227 61.0341 4.39772 55.6932C1.4659 50.3523 0 43.8182 0 36.0909C0 28.3182 1.5 21.7727 4.5 16.4546C7.5 11.1137 11.5454 7.07957 16.6364 4.35229C21.7273 1.60229 27.4091 0.227295 33.6818 0.227295C38.0909 0.227295 42.1477 0.829567 45.8523 2.03411C49.5568 3.23866 52.8068 5.00002 55.6023 7.3182C58.3977 9.61366 60.6477 12.4432 62.3523 15.8068C64.0568 19.1705 65.0909 23.0227 65.4545 27.3637Z" fill="white"/>
    <path d="M450.051 69.8182H465.869L421.551 0H405.46V69.8182H424.415V33.1364H424.824L450.051 69.8182Z" fill="white"/>
    <path d="M482.472 43.0908H483.017L492.563 0H513.698L493.108 69.8184H474.972L463.108 30.8184H462.563L457.233 48.3359L446.313 31.1328L454.517 0H471.154L482.472 43.0908Z" fill="white"/>
    <path d="M829.522 114.849C829.531 113.562 829.113 112.578 828.27 111.896C827.434 111.214 826.267 110.874 824.767 110.874C823.693 110.874 822.734 111.044 821.89 111.385C821.055 111.717 820.373 112.178 819.845 112.766C819.325 113.345 819.005 114.006 818.886 114.747C818.775 115.369 818.831 115.906 819.052 116.358C819.282 116.81 819.61 117.189 820.037 117.496C820.471 117.794 820.948 118.045 821.468 118.25C821.988 118.446 822.491 118.608 822.977 118.736L825.431 119.401C826.224 119.605 827.029 119.882 827.848 120.232C828.666 120.581 829.403 121.041 830.059 121.612C830.716 122.183 831.206 122.891 831.529 123.734C831.853 124.578 831.917 125.588 831.721 126.764C831.466 128.247 830.865 129.564 829.919 130.714C828.973 131.865 827.724 132.773 826.173 133.437C824.622 134.102 822.823 134.435 820.778 134.435C818.818 134.435 817.169 134.124 815.831 133.501C814.501 132.879 813.525 131.997 812.903 130.855C812.281 129.705 812.059 128.341 812.238 126.764H816.214C816.12 127.71 816.291 128.499 816.725 129.129C817.169 129.751 817.791 130.216 818.592 130.523C819.393 130.821 820.301 130.97 821.315 130.97C822.44 130.97 823.467 130.795 824.396 130.446C825.325 130.088 826.092 129.594 826.697 128.963C827.302 128.324 827.673 127.578 827.809 126.726C827.946 125.95 827.835 125.315 827.477 124.821C827.127 124.327 826.599 123.918 825.892 123.594C825.193 123.27 824.396 122.984 823.501 122.737L820.548 121.893C818.545 121.322 817.028 120.483 815.997 119.375C814.966 118.267 814.595 116.801 814.885 114.977C815.14 113.469 815.771 112.152 816.777 111.027C817.782 109.902 819.035 109.028 820.535 108.406C822.035 107.776 823.663 107.46 825.419 107.46C827.191 107.46 828.7 107.776 829.944 108.406C831.189 109.037 832.109 109.906 832.706 111.014C833.302 112.122 833.511 113.401 833.332 114.849H829.522Z" fill="white"/>
    <path d="M788.517 134L792.864 107.818H802.452C804.31 107.818 805.797 108.125 806.914 108.739C808.039 109.344 808.814 110.166 809.24 111.206C809.667 112.237 809.769 113.401 809.547 114.696C809.368 115.787 809.015 116.703 808.486 117.445C807.966 118.186 807.336 118.783 806.594 119.234C805.853 119.686 805.073 120.014 804.255 120.219L804.203 120.474C805.056 120.517 805.853 120.798 806.594 121.318C807.344 121.83 807.915 122.558 808.307 123.504C808.699 124.45 808.789 125.601 808.576 126.956C808.346 128.294 807.826 129.496 807.016 130.561C806.215 131.618 805.111 132.457 803.705 133.08C802.299 133.693 800.581 134 798.553 134H788.517ZM793.03 130.612H798.732C800.624 130.612 802.039 130.246 802.976 129.513C803.922 128.78 804.493 127.864 804.689 126.764C804.817 125.938 804.728 125.179 804.421 124.489C804.123 123.798 803.62 123.249 802.912 122.84C802.213 122.43 801.336 122.226 800.279 122.226H794.436L793.03 130.612ZM794.961 119.145H800.24C801.127 119.145 801.953 118.974 802.721 118.634C803.496 118.293 804.14 117.811 804.651 117.189C805.171 116.567 805.495 115.838 805.623 115.003C805.81 113.912 805.584 113.004 804.945 112.28C804.314 111.547 803.219 111.18 801.659 111.18H796.265L794.961 119.145Z" fill="white"/>
    <path d="M765.522 134H761.329L775.097 107.818H779.661L784.737 134H780.543L776.721 112.574H776.516L765.522 134ZM767.925 123.747H781.528L780.965 127.071H767.363L767.925 123.747Z" fill="white"/>
    <path d="M741.654 134L746.001 107.818H749.951L746.167 130.599H758.031L757.468 134H741.654Z" fill="white"/>
  </g>
</svg>
