<svg width="637" height="71" viewBox="0 0 637 71" fill="none" xmlns="http://www.w3.org/2000/svg">
<path d="M32.832 5.72205e-06C39.36 5.72205e-06 45.088 1.37601 50.016 4.12801C54.944 6.88001 58.752 10.848 61.44 16.032C64.192 21.152 65.568 27.392 65.568 34.752C65.568 41.92 64.16 48.192 61.344 53.568C58.592 58.944 54.72 63.136 49.728 66.144C44.8 69.152 39.136 70.656 32.736 70.656C26.208 70.656 20.48 69.28 15.552 66.528C10.624 63.776 6.78402 59.808 4.03202 54.624C1.34402 49.44 1.52588e-05 43.2 1.52588e-05 35.904C1.52588e-05 28.736 1.40802 22.464 4.22402 17.088C7.04002 11.712 10.912 7.52001 15.84 4.51201C20.768 1.50401 26.432 5.72205e-06 32.832 5.72205e-06ZM32.448 1.72801C28.672 1.72801 25.376 3.16801 22.56 6.04801C19.808 8.92801 17.664 12.896 16.128 17.952C14.592 23.008 13.824 28.864 13.824 35.52C13.824 42.304 14.688 48.224 16.416 53.28C18.144 58.272 20.48 62.144 23.424 64.896C26.368 67.584 29.6 68.928 33.12 68.928C36.896 68.928 40.16 67.488 42.912 64.608C45.728 61.728 47.904 57.76 49.44 52.704C50.976 47.584 51.744 41.728 51.744 35.136C51.744 28.288 50.88 22.368 49.152 17.376C47.424 12.384 45.088 8.54401 42.144 5.85601C39.264 3.10401 36.032 1.72801 32.448 1.72801ZM75.6075 1.34401C77.2075 1.40801 79.2555 1.47201 81.7515 1.53601C84.2475 1.60001 86.7435 1.63201 89.2395 1.63201C92.3755 1.63201 95.3515 1.60001 98.1675 1.53601C100.984 1.47201 102.968 1.44001 104.12 1.44001C112.696 1.44001 119.064 3.20001 123.224 6.72001C127.448 10.24 129.56 14.784 129.56 20.352C129.56 22.656 129.144 25.088 128.312 27.648C127.48 30.144 126.04 32.48 123.992 34.656C121.944 36.768 119.128 38.496 115.544 39.84C112.024 41.184 107.512 41.856 102.008 41.856H92.4075V39.936H101.048C105.08 39.936 108.152 39.072 110.264 37.344C112.44 35.616 113.88 33.344 114.584 30.528C115.352 27.712 115.736 24.672 115.736 21.408C115.736 15.328 114.744 10.784 112.76 7.77601C110.776 4.76801 107.352 3.26401 102.488 3.26401C99.8635 3.26401 98.1355 3.80801 97.3035 4.89601C96.5355 5.98401 96.1515 8.19201 96.1515 11.52V58.752C96.1515 61.184 96.4075 63.008 96.9195 64.224C97.4315 65.44 98.4235 66.24 99.8955 66.624C101.368 67.008 103.48 67.232 106.232 67.296V69.312C104.376 69.184 101.976 69.12 99.0315 69.12C96.0875 69.056 93.0475 69.024 89.9115 69.024C87.2235 69.024 84.6315 69.056 82.1355 69.12C79.6395 69.12 77.4635 69.184 75.6075 69.312V67.392C77.7195 67.264 79.2875 67.008 80.3115 66.624C81.3995 66.24 82.1035 65.472 82.4235 64.32C82.8075 63.168 82.9995 61.44 82.9995 59.136V11.52C82.9995 9.15201 82.8075 7.42401 82.4235 6.33601C82.1035 5.18401 81.3995 4.41601 80.3115 4.03201C79.2875 3.58401 77.7195 3.32801 75.6075 3.26401V1.34401ZM198.59 1.34401V3.26401C196.542 3.45601 194.974 3.93601 193.886 4.70401C192.862 5.40801 192.158 6.56001 191.774 8.16001C191.39 9.69601 191.198 11.904 191.198 14.784V41.376C191.198 45.664 190.91 49.504 190.334 52.896C189.822 56.288 188.798 59.232 187.262 61.728C185.662 64.416 183.262 66.592 180.062 68.256C176.926 69.856 173.086 70.656 168.542 70.656C165.47 70.656 162.43 70.304 159.422 69.6C156.478 68.896 153.886 67.584 151.646 65.664C149.662 64 148.094 62.112 146.942 60C145.854 57.888 145.118 55.36 144.734 52.416C144.35 49.408 144.158 45.824 144.158 41.664V11.52C144.158 9.15201 143.966 7.42401 143.582 6.33601C143.262 5.18401 142.558 4.41601 141.47 4.03201C140.446 3.58401 138.878 3.32801 136.766 3.26401V1.34401C138.366 1.40801 140.414 1.47201 142.91 1.53601C145.406 1.60001 148.094 1.63201 150.974 1.63201C153.598 1.63201 156.19 1.60001 158.75 1.53601C161.31 1.47201 163.422 1.40801 165.086 1.34401V3.26401C162.91 3.32801 161.246 3.58401 160.094 4.03201C159.006 4.41601 158.27 5.18401 157.886 6.33601C157.502 7.42401 157.31 9.15201 157.31 11.52V46.272C157.31 49.472 157.502 52.384 157.886 55.008C158.334 57.568 159.038 59.776 159.998 61.632C161.022 63.488 162.43 64.896 164.222 65.856C166.078 66.816 168.414 67.296 171.23 67.296C175.902 67.296 179.518 66.24 182.078 64.128C184.638 62.016 186.43 59.072 187.454 55.296C188.478 51.52 188.99 47.232 188.99 42.432V15.552C188.99 12.416 188.766 10.016 188.318 8.35201C187.87 6.68801 186.974 5.47201 185.63 4.70401C184.35 3.93601 182.43 3.45601 179.87 3.26401V1.34401C181.086 1.40801 182.654 1.47201 184.574 1.53601C186.558 1.60001 188.382 1.63201 190.046 1.63201C191.646 1.63201 193.214 1.60001 194.75 1.53601C196.35 1.47201 197.63 1.40801 198.59 1.34401ZM229.747 0.192009C233.331 0.192009 236.083 0.57601 238.003 1.34401C239.923 2.11201 241.587 2.94401 242.995 3.84001C243.763 4.28801 244.371 4.64001 244.819 4.89601C245.331 5.08801 245.811 5.18401 246.259 5.18401C246.899 5.18401 247.347 4.83201 247.603 4.12801C247.923 3.42401 248.179 2.36801 248.371 0.960011H250.579C250.515 2.17601 250.419 3.58401 250.291 5.18401C250.227 6.78401 250.163 8.92801 250.099 11.616C250.099 14.24 250.099 17.728 250.099 22.08H247.891C247.699 18.816 246.963 15.68 245.683 12.672C244.467 9.66401 242.707 7.20001 240.403 5.28001C238.163 3.29601 235.283 2.30401 231.763 2.30401C228.627 2.30401 226.003 3.23201 223.891 5.08801C221.843 6.94401 220.819 9.44001 220.819 12.576C220.819 15.264 221.491 17.536 222.835 19.392C224.179 21.184 226.067 22.944 228.499 24.672C230.995 26.336 233.939 28.256 237.331 30.432C240.467 32.48 243.283 34.528 245.779 36.576C248.275 38.56 250.227 40.768 251.635 43.2C253.107 45.632 253.843 48.608 253.843 52.128C253.843 56.288 252.819 59.744 250.771 62.496C248.723 65.248 245.971 67.296 242.515 68.64C239.059 69.984 235.283 70.656 231.187 70.656C227.411 70.656 224.403 70.272 222.163 69.504C219.987 68.736 218.099 67.936 216.499 67.104C215.091 66.208 214.003 65.76 213.235 65.76C212.595 65.76 212.115 66.112 211.795 66.816C211.539 67.52 211.315 68.576 211.123 69.984H208.915C209.043 68.512 209.107 66.784 209.107 64.8C209.171 62.816 209.203 60.256 209.203 57.12C209.267 53.92 209.299 49.888 209.299 45.024H211.507C211.763 49.12 212.467 52.96 213.619 56.544C214.835 60.064 216.659 62.912 219.091 65.088C221.587 67.264 224.883 68.352 228.979 68.352C231.219 68.352 233.235 67.968 235.027 67.2C236.883 66.368 238.355 65.12 239.443 63.456C240.531 61.728 241.075 59.552 241.075 56.928C241.075 54.304 240.467 52 239.251 50.016C238.035 48.032 236.339 46.176 234.163 44.448C231.987 42.72 229.427 40.96 226.483 39.168C223.475 37.248 220.659 35.296 218.035 33.312C215.411 31.328 213.299 29.088 211.699 26.592C210.163 24.032 209.395 20.96 209.395 17.376C209.395 13.408 210.355 10.176 212.275 7.68001C214.195 5.12001 216.691 3.23201 219.763 2.01601C222.899 0.800009 226.227 0.192009 229.747 0.192009ZM278.657 1.34401C280.001 1.40801 281.761 1.47201 283.937 1.53601C286.113 1.60001 288.257 1.63201 290.369 1.63201C293.377 1.63201 296.257 1.60001 299.009 1.53601C301.761 1.47201 303.713 1.44001 304.865 1.44001C312.609 1.44001 318.401 3.20001 322.241 6.72001C326.081 10.24 328.001 14.784 328.001 20.352C328.001 22.656 327.617 25.088 326.849 27.648C326.081 30.144 324.737 32.48 322.817 34.656C320.961 36.768 318.401 38.496 315.137 39.84C311.873 41.184 307.745 41.856 302.753 41.856H293.537V39.936H301.793C306.337 39.936 309.793 39.072 312.161 37.344C314.593 35.616 316.225 33.344 317.057 30.528C317.953 27.712 318.401 24.672 318.401 21.408C318.401 15.328 317.185 10.784 314.753 7.77601C312.385 4.76801 308.289 3.26401 302.465 3.26401C299.521 3.26401 297.601 3.80801 296.705 4.89601C295.809 5.98401 295.361 8.19201 295.361 11.52V59.136C295.361 61.44 295.585 63.168 296.033 64.32C296.545 65.472 297.505 66.24 298.913 66.624C300.321 67.008 302.369 67.264 305.057 67.392V69.312C303.393 69.184 301.281 69.12 298.721 69.12C296.161 69.056 293.569 69.024 290.945 69.024C288.449 69.024 286.113 69.056 283.937 69.12C281.761 69.12 280.001 69.184 278.657 69.312V67.392C280.833 67.264 282.465 67.008 283.553 66.624C284.705 66.24 285.473 65.472 285.857 64.32C286.241 63.168 286.433 61.44 286.433 59.136V11.52C286.433 9.15201 286.241 7.42401 285.857 6.33601C285.473 5.18401 284.705 4.41601 283.553 4.03201C282.465 3.58401 280.833 3.32801 278.657 3.26401V1.34401ZM372.158 5.72205e-06C378.238 5.72205e-06 383.55 1.37601 388.094 4.12801C392.702 6.88001 396.254 10.848 398.75 16.032C401.31 21.152 402.59 27.392 402.59 34.752C402.59 41.92 401.278 48.192 398.654 53.568C396.094 58.944 392.51 63.136 387.902 66.144C383.294 69.152 378.014 70.656 372.062 70.656C365.982 70.656 360.638 69.28 356.03 66.528C351.486 63.776 347.934 59.808 345.374 54.624C342.878 49.44 341.63 43.2 341.63 35.904C341.63 28.736 342.942 22.464 345.566 17.088C348.19 11.712 351.774 7.52001 356.318 4.51201C360.926 1.50401 366.206 5.72205e-06 372.158 5.72205e-06ZM371.774 1.72801C367.614 1.72801 363.998 3.16801 360.926 6.04801C357.854 8.92801 355.454 12.896 353.726 17.952C352.062 23.008 351.23 28.864 351.23 35.52C351.23 42.304 352.158 48.224 354.014 53.28C355.934 58.272 358.494 62.144 361.694 64.896C364.958 67.584 368.542 68.928 372.446 68.928C376.606 68.928 380.222 67.488 383.294 64.608C386.366 61.728 388.734 57.76 390.398 52.704C392.126 47.584 392.99 41.728 392.99 35.136C392.99 28.288 392.03 22.368 390.11 17.376C388.254 12.384 385.726 8.54401 382.526 5.85601C379.326 3.10401 375.742 1.72801 371.774 1.72801ZM416.74 1.34401C418.084 1.40801 419.844 1.47201 422.02 1.53601C424.196 1.60001 426.34 1.63201 428.452 1.63201C431.46 1.63201 434.34 1.60001 437.092 1.53601C439.844 1.47201 441.796 1.44001 442.948 1.44001C450.692 1.44001 456.484 3.20001 460.324 6.72001C464.164 10.24 466.084 14.784 466.084 20.352C466.084 22.656 465.7 25.088 464.932 27.648C464.164 30.144 462.82 32.48 460.9 34.656C459.044 36.768 456.484 38.496 453.22 39.84C449.956 41.184 445.828 41.856 440.836 41.856H431.62V39.936H439.876C444.42 39.936 447.876 39.072 450.244 37.344C452.676 35.616 454.308 33.344 455.14 30.528C456.036 27.712 456.484 24.672 456.484 21.408C456.484 15.328 455.268 10.784 452.836 7.77601C450.468 4.76801 446.372 3.26401 440.548 3.26401C437.604 3.26401 435.684 3.80801 434.788 4.89601C433.892 5.98401 433.444 8.19201 433.444 11.52V59.136C433.444 61.44 433.668 63.168 434.116 64.32C434.628 65.472 435.588 66.24 436.996 66.624C438.404 67.008 440.452 67.264 443.14 67.392V69.312C441.476 69.184 439.364 69.12 436.804 69.12C434.244 69.056 431.652 69.024 429.028 69.024C426.532 69.024 424.196 69.056 422.02 69.12C419.844 69.12 418.084 69.184 416.74 69.312V67.392C418.916 67.264 420.548 67.008 421.636 66.624C422.788 66.24 423.556 65.472 423.94 64.32C424.324 63.168 424.516 61.44 424.516 59.136V11.52C424.516 9.15201 424.324 7.42401 423.94 6.33601C423.556 5.18401 422.788 4.41601 421.636 4.03201C420.548 3.58401 418.916 3.32801 416.74 3.26401V1.34401ZM537.504 1.34401V3.26401C535.328 3.32801 533.664 3.64801 532.512 4.22401C531.424 4.80001 530.688 5.72801 530.304 7.00801C529.92 8.28801 529.728 10.112 529.728 12.48V41.376C529.728 45.856 529.44 49.76 528.864 53.088C528.288 56.416 527.264 59.296 525.792 61.728C524.192 64.416 521.856 66.592 518.784 68.256C515.712 69.856 512.192 70.656 508.224 70.656C505.152 70.656 502.208 70.272 499.392 69.504C496.64 68.8 494.208 67.456 492.096 65.472C490.24 63.68 488.768 61.792 487.68 59.808C486.656 57.824 485.952 55.392 485.568 52.512C485.184 49.632 484.992 46.016 484.992 41.664V11.52C484.992 9.15201 484.8 7.42401 484.416 6.33601C484.032 5.18401 483.264 4.41601 482.112 4.03201C481.024 3.58401 479.392 3.32801 477.216 3.26401V1.34401C478.56 1.40801 480.32 1.47201 482.496 1.53601C484.672 1.60001 487.008 1.63201 489.504 1.63201C491.744 1.63201 493.952 1.60001 496.128 1.53601C498.368 1.47201 500.224 1.40801 501.696 1.34401V3.26401C499.52 3.32801 497.856 3.58401 496.704 4.03201C495.616 4.41601 494.88 5.18401 494.496 6.33601C494.112 7.42401 493.92 9.15201 493.92 11.52V43.296C493.92 46.56 494.08 49.664 494.4 52.608C494.72 55.488 495.36 58.048 496.32 60.288C497.344 62.464 498.88 64.192 500.928 65.472C502.976 66.688 505.696 67.296 509.088 67.296C513.952 67.296 517.696 66.24 520.32 64.128C523.008 61.952 524.864 58.976 525.888 55.2C526.976 51.424 527.52 47.168 527.52 42.432V12.48C527.52 10.112 527.232 8.28801 526.656 7.00801C526.144 5.72801 525.248 4.80001 523.968 4.22401C522.688 3.64801 520.96 3.32801 518.784 3.26401V1.34401C519.936 1.40801 521.44 1.47201 523.296 1.53601C525.216 1.60001 526.976 1.63201 528.576 1.63201C530.24 1.63201 531.872 1.60001 533.472 1.53601C535.136 1.47201 536.48 1.40801 537.504 1.34401ZM574.334 1.34401V3.26401C572.158 3.32801 570.494 3.58401 569.342 4.03201C568.254 4.41601 567.518 5.18401 567.134 6.33601C566.75 7.42401 566.558 9.15201 566.558 11.52V59.136C566.558 61.44 566.75 63.168 567.134 64.32C567.518 65.472 568.254 66.24 569.342 66.624C570.494 66.944 572.158 67.104 574.334 67.104H581.342C584.35 67.104 586.782 66.784 588.638 66.144C590.558 65.504 592.062 64.512 593.15 63.168C594.302 61.76 595.166 59.904 595.742 57.6C596.318 55.296 596.766 52.48 597.086 49.152H599.294C599.102 51.136 599.006 53.76 599.006 57.024C599.006 58.24 599.038 60 599.102 62.304C599.23 64.544 599.422 66.88 599.678 69.312C596.414 69.184 592.734 69.12 588.638 69.12C584.542 69.056 580.894 69.024 577.694 69.024C576.286 69.024 574.462 69.024 572.222 69.024C570.046 69.024 567.678 69.056 565.118 69.12C562.558 69.12 559.966 69.152 557.342 69.216C554.718 69.216 552.222 69.248 549.854 69.312V67.392C552.03 67.264 553.662 67.008 554.75 66.624C555.902 66.24 556.67 65.472 557.054 64.32C557.438 63.168 557.63 61.44 557.63 59.136V11.52C557.63 9.15201 557.438 7.42401 557.054 6.33601C556.67 5.18401 555.902 4.41601 554.75 4.03201C553.662 3.58401 552.03 3.32801 549.854 3.26401V1.34401C551.198 1.40801 552.958 1.47201 555.134 1.53601C557.31 1.60001 559.646 1.63201 562.142 1.63201C564.382 1.63201 566.59 1.60001 568.766 1.53601C571.006 1.47201 572.862 1.40801 574.334 1.34401ZM636.531 1.34401V3.26401C634.355 3.32801 632.691 3.58401 631.539 4.03201C630.451 4.41601 629.715 5.18401 629.331 6.33601C628.947 7.42401 628.755 9.15201 628.755 11.52V59.136C628.755 61.44 628.947 63.168 629.331 64.32C629.715 65.472 630.451 66.24 631.539 66.624C632.691 67.008 634.355 67.264 636.531 67.392V69.312C635.059 69.184 633.203 69.12 630.963 69.12C628.787 69.056 626.579 69.024 624.339 69.024C621.843 69.024 619.507 69.056 617.331 69.12C615.155 69.12 613.395 69.184 612.051 69.312V67.392C614.227 67.264 615.859 67.008 616.947 66.624C618.099 66.24 618.867 65.472 619.251 64.32C619.635 63.168 619.827 61.44 619.827 59.136V11.52C619.827 9.15201 619.635 7.42401 619.251 6.33601C618.867 5.18401 618.099 4.41601 616.947 4.03201C615.859 3.58401 614.227 3.32801 612.051 3.26401V1.34401C613.395 1.40801 615.155 1.47201 617.331 1.53601C619.507 1.60001 621.843 1.63201 624.339 1.63201C626.579 1.63201 628.787 1.60001 630.963 1.53601C633.203 1.47201 635.059 1.40801 636.531 1.34401Z" fill="#F0F0F0"/>
</svg>
