<svg width="634" height="70" viewBox="0 0 634 70" fill="none" xmlns="http://www.w3.org/2000/svg">
<path d="M625.313 8.73608V60.5761C625.313 66.0481 626.657 66.7201 633.761 67.3921V68.3521H607.841V67.3921C614.945 66.7201 616.289 66.0481 616.289 60.5761V8.73608C616.289 3.26408 614.945 2.59208 607.841 1.92008V0.960083H633.761V1.92008C626.657 2.59208 625.313 3.26408 625.313 8.73608Z" fill="white"/>
<path d="M594.59 68.3521H546.206V67.3921C553.31 66.7201 554.654 66.0481 554.654 60.5761V8.73608C554.654 3.26408 553.31 2.59208 546.206 1.92008V0.960083H572.126V1.92008C565.022 2.59208 563.678 3.26408 563.678 8.73608V60.0961C563.678 65.2801 566.462 66.6241 573.086 66.6241H579.038C585.854 66.6241 592.478 62.4001 596.798 49.1521H597.758L594.59 68.3521Z" fill="white"/>
<path d="M487.844 8.73608V43.2001C487.844 57.4081 493.892 65.9521 505.7 65.9521C517.028 65.9521 526.244 58.8481 526.244 43.2001V8.92808C526.244 3.16808 523.844 2.40008 514.916 1.92008V0.960083H537.764V1.92008C530.66 2.49608 528.356 3.16808 528.356 8.92808V44.6401C528.356 60.7681 517.508 69.3121 504.26 69.3121C488.996 69.3121 478.82 60.8641 478.82 44.3521V8.73608C478.82 3.26408 477.476 2.59208 470.372 1.92008V0.960083H496.292V1.92008C489.188 2.59208 487.844 3.26408 487.844 8.73608Z" fill="white"/>
<path d="M410.655 0.960083H435.423C452.511 0.960083 461.439 9.79208 461.439 19.7761C461.439 31.1041 452.319 39.2641 435.807 39.2641H428.127V60.0001C428.127 65.8561 430.239 66.6241 440.031 67.3921V68.3521H410.655V67.3921C417.759 66.7201 419.103 66.0481 419.103 60.5761V8.73608C419.103 3.26408 417.759 2.59208 410.655 1.92008V0.960083ZM428.127 2.68808V37.5361H433.887C445.983 37.5361 451.551 31.0081 451.551 20.0641C451.551 10.5601 445.983 2.68808 433.887 2.68808H428.127Z" fill="white"/>
<path d="M369.059 0C388.259 0 398.915 15.936 398.915 33.312C398.915 54.336 385.379 69.312 368.387 69.312C349.187 69.312 338.531 53.376 338.531 36C338.531 14.976 352.067 0 369.059 0ZM368.291 1.344C355.427 1.344 348.419 16.32 348.419 34.656C348.419 50.4 354.947 67.968 369.155 67.968C382.019 67.968 389.027 52.992 389.027 34.656C389.027 18.912 382.499 1.344 368.291 1.344Z" fill="white"/>
<path d="M275.573 0.960083H300.341C317.429 0.960083 326.357 9.79208 326.357 19.7761C326.357 31.1041 317.237 39.2641 300.725 39.2641H293.045V60.0001C293.045 65.8561 295.157 66.6241 304.949 67.3921V68.3521H275.573V67.3921C282.677 66.7201 284.021 66.0481 284.021 60.5761V8.73608C284.021 3.26408 282.677 2.59208 275.573 1.92008V0.960083ZM293.045 2.68808V37.5361H298.805C310.901 37.5361 316.469 31.0081 316.469 20.0641C316.469 10.5601 310.901 2.68808 298.805 2.68808H293.045Z" fill="white"/>
<path d="M231.118 1.44C223.342 1.44 218.83 6.52799 218.83 13.056C218.83 29.76 253.486 23.136 253.486 47.808C253.486 60.768 242.158 69.312 228.526 69.312C219.79 69.312 211.822 66.528 207.502 62.976L206.734 45.888H207.694C209.998 57.6 217.87 67.872 228.718 67.872C236.782 67.872 242.254 62.88 242.254 55.392C242.254 35.136 207.982 43.488 207.982 20.064C207.982 8.256 217.966 0 231.022 0C238.126 0 244.366 2.208 249.646 5.568L249.838 20.448H248.878C246.766 9.12 240.046 1.44 231.118 1.44Z" fill="white"/>
<path d="M154.259 8.83208V42.6241C154.259 56.0641 160.019 64.2241 171.251 64.2241C181.715 64.2241 190.643 57.7921 190.643 42.5281V8.92808C190.643 3.55208 188.435 2.68808 179.315 2.20808V0.960083H201.779V2.20808C194.867 2.68808 192.947 3.55208 192.947 8.92808V44.0641C192.947 60.5761 181.523 69.3121 167.411 69.3121C150.899 69.3121 140.147 60.3841 140.147 43.8721V8.83208C140.147 3.55208 139.283 2.88008 132.467 2.20808V0.960083H161.939V2.20808C155.219 2.88008 154.259 3.55208 154.259 8.83208Z" fill="white"/>
<path d="M71.4983 0.960083H100.586C118.442 0.960083 127.37 9.31208 127.37 19.6801C127.37 31.5841 117.77 39.1681 100.01 39.1681H93.2903V60.1921C93.2903 65.5681 95.6903 66.4321 104.81 67.1041V68.3521H71.4983V67.1041C78.2183 66.4321 79.1783 65.7601 79.1783 60.4801V8.83208C79.1783 3.55208 78.2183 2.88008 71.4983 2.20808V0.960083ZM93.2903 2.68808V37.3441H97.1303C107.786 37.3441 112.97 30.7201 112.97 19.9681C112.97 9.88808 107.402 2.68808 97.1303 2.68808H93.2903Z" fill="white"/>
<path d="M32.352 0C52.224 0 63.552 15.648 63.552 33.312C63.552 54.336 49.152 69.312 31.104 69.312C11.232 69.312 0 53.664 0 36C0 14.976 14.304 0 32.352 0ZM31.296 1.344C20.064 1.344 14.976 17.088 14.976 34.08C14.976 51.456 20.16 67.968 32.16 67.968C43.488 67.968 48.48 52.224 48.48 35.232C48.48 17.856 43.392 1.344 31.296 1.344Z" fill="white"/>
</svg>
