<svg width="194" height="194" viewBox="0 0 194 194" fill="none" xmlns="http://www.w3.org/2000/svg">
<rect x="0.75" y="0.75" width="192" height="192" rx="32" stroke="#222222" stroke-width="1.5" stroke-linejoin="round"/>
<path d="M109.769 61.782H133.121C148.325 61.782 156.137 69.342 156.137 78.162C156.137 88.326 147.989 95.298 133.037 95.298H126.737V113.526C126.737 118.482 128.669 119.154 136.985 119.826V120.75H109.769V119.826C115.817 119.238 116.825 118.566 116.825 113.946V68.586C116.825 63.966 115.817 63.294 109.769 62.706V61.782ZM126.737 63.294V93.702H131.021C141.017 93.702 145.805 87.99 145.805 78.498C145.805 69.93 140.933 63.294 131.021 63.294H126.737Z" fill="#222222"/>
<path d="M70.7543 52.398C90.6263 52.398 101.954 68.046 101.954 85.71C101.954 106.734 87.5543 121.71 69.5063 121.71C49.6343 121.71 38.4023 106.062 38.4023 88.398C38.4023 67.374 52.7063 52.398 70.7543 52.398ZM69.6983 53.742C58.4663 53.742 53.3783 69.486 53.3783 86.478C53.3783 103.854 58.5623 120.366 70.5623 120.366C81.8903 120.366 86.8823 104.622 86.8823 87.63C86.8823 70.254 81.7943 53.742 69.6983 53.742Z" fill="#222222"/>
<path d="M161.005 147.33V158.13C161.005 159.27 161.285 159.41 162.765 159.55V159.75H157.365V159.55C158.845 159.41 159.125 159.27 159.125 158.13V147.33C159.125 146.19 158.845 146.05 157.365 145.91V145.71H162.765V145.91C161.285 146.05 161.005 146.19 161.005 147.33Z" fill="#222222"/>
<path d="M154.604 159.75H144.524V159.55C146.004 159.41 146.284 159.27 146.284 158.13V147.33C146.284 146.19 146.004 146.05 144.524 145.91V145.71H149.924V145.91C148.444 146.05 148.164 146.19 148.164 147.33V158.03C148.164 159.11 148.744 159.39 150.124 159.39H151.364C152.784 159.39 154.164 158.51 155.064 155.75H155.264L154.604 159.75Z" fill="#222222"/>
<path d="M132.366 147.33V154.51C132.366 157.47 133.626 159.25 136.086 159.25C138.446 159.25 140.366 157.77 140.366 154.51V147.37C140.366 146.17 139.866 146.01 138.006 145.91V145.71H142.766V145.91C141.286 146.03 140.806 146.17 140.806 147.37V154.81C140.806 158.17 138.546 159.95 135.786 159.95C132.606 159.95 130.486 158.19 130.486 154.75V147.33C130.486 146.19 130.206 146.05 128.726 145.91V145.71H134.126V145.91C132.646 146.05 132.366 146.19 132.366 147.33Z" fill="#222222"/>
<path d="M116.285 145.71H121.445C125.005 145.71 126.865 147.55 126.865 149.63C126.865 151.99 124.965 153.69 121.525 153.69H119.925V158.01C119.925 159.23 120.365 159.39 122.405 159.55V159.75H116.285V159.55C117.765 159.41 118.045 159.27 118.045 158.13V147.33C118.045 146.19 117.765 146.05 116.285 145.91V145.71ZM119.925 146.07V153.33H121.125C123.645 153.33 124.805 151.97 124.805 149.69C124.805 147.71 123.645 146.07 121.125 146.07H119.925Z" fill="#222222"/>
<path d="M107.619 145.51C111.619 145.51 113.839 148.83 113.839 152.45C113.839 156.83 111.019 159.95 107.479 159.95C103.479 159.95 101.259 156.63 101.259 153.01C101.259 148.63 104.079 145.51 107.619 145.51ZM107.459 145.79C104.779 145.79 103.319 148.91 103.319 152.73C103.319 156.01 104.679 159.67 107.639 159.67C110.319 159.67 111.779 156.55 111.779 152.73C111.779 149.45 110.419 145.79 107.459 145.79Z" fill="#222222"/>
<path d="M88.1425 145.71H93.3025C96.8625 145.71 98.7225 147.55 98.7225 149.63C98.7225 151.99 96.8225 153.69 93.3825 153.69H91.7825V158.01C91.7825 159.23 92.2225 159.39 94.2625 159.55V159.75H88.1425V159.55C89.6225 159.41 89.9025 159.27 89.9025 158.13V147.33C89.9025 146.19 89.6225 146.05 88.1425 145.91V145.71ZM91.7825 146.07V153.33H92.9825C95.5025 153.33 96.6625 151.97 96.6625 149.69C96.6625 147.71 95.5025 146.07 92.9825 146.07H91.7825Z" fill="#222222"/>
<path d="M78.881 145.81C77.261 145.81 76.321 146.87 76.321 148.23C76.321 151.71 83.541 150.33 83.541 155.47C83.541 158.17 81.181 159.95 78.341 159.95C76.521 159.95 74.861 159.37 73.961 158.63L73.801 155.07H74.001C74.481 157.51 76.121 159.65 78.381 159.65C80.061 159.65 81.201 158.61 81.201 157.05C81.201 152.83 74.061 154.57 74.061 149.69C74.061 147.23 76.141 145.51 78.861 145.51C80.341 145.51 81.641 145.97 82.741 146.67L82.781 149.77H82.581C82.141 147.41 80.741 145.81 78.881 145.81Z" fill="#222222"/>
<path d="M62.8689 147.35V154.39C62.8689 157.19 64.0689 158.89 66.4089 158.89C68.5889 158.89 70.4489 157.55 70.4489 154.37V147.37C70.4489 146.25 69.9889 146.07 68.0889 145.97V145.71H72.7689V145.97C71.3289 146.07 70.9289 146.25 70.9289 147.37V154.69C70.9289 158.13 68.5489 159.95 65.6089 159.95C62.1689 159.95 59.9289 158.09 59.9289 154.65V147.35C59.9289 146.25 59.7489 146.11 58.3289 145.97V145.71H64.4689V145.97C63.0689 146.11 62.8689 146.25 62.8689 147.35Z" fill="#222222"/>
<path d="M45.627 145.71H51.687C55.407 145.71 57.267 147.45 57.267 149.61C57.267 152.09 55.267 153.67 51.567 153.67H50.167V158.05C50.167 159.17 50.667 159.35 52.567 159.49V159.75H45.627V159.49C47.027 159.35 47.227 159.21 47.227 158.11V147.35C47.227 146.25 47.027 146.11 45.627 145.97V145.71ZM50.167 146.07V153.29H50.967C53.187 153.29 54.267 151.91 54.267 149.67C54.267 147.57 53.107 146.07 50.967 146.07H50.167Z" fill="#222222"/>
<path d="M37.4714 145.51C41.6114 145.51 43.9714 148.77 43.9714 152.45C43.9714 156.83 40.9714 159.95 37.2114 159.95C33.0714 159.95 30.7314 156.69 30.7314 153.01C30.7314 148.63 33.7114 145.51 37.4714 145.51ZM37.2514 145.79C34.9114 145.79 33.8514 149.07 33.8514 152.61C33.8514 156.23 34.9314 159.67 37.4314 159.67C39.7914 159.67 40.8314 156.39 40.8314 152.85C40.8314 149.23 39.7714 145.79 37.2514 145.79Z" fill="#222222"/>
<path d="M35.4153 32.75L40.7165 22.1421V22.0682H34.6085V21.1136H41.8301V22.1136L36.5347 32.75H35.4153Z" fill="#222222"/>
<path d="M30.5861 21.1136V32.75H29.5236V22.2273H29.4554L26.7281 24.0398V22.9375L29.4781 21.1136H30.5861Z" fill="#222222"/>
</svg>
